<?xml version="1.0" encoding="utf-8"?>
<!-- Generator: Adobe Illustrator 21.1.0, SVG Export Plug-In . SVG Version: 6.00 Build 0)  -->
<svg version="1.1" id="Слой_1" xmlns="http://www.w3.org/2000/svg" xmlns:xlink="http://www.w3.org/1999/xlink" x="0px" y="0px"
	 viewBox="0 0 549.6 885.6" style="enable-background:new 0 0 549.6 885.6;" xml:space="preserve">
<style type="text/css">
	.st0{clip-path:url(#SVGID_2_);fill:#FFFFFF;}
</style>
<g>
	<defs>
		<rect id="SVGID_1_" width="549.6" height="885.6"/>
	</defs>
	<clipPath id="SVGID_2_">
		<use xlink:href="#SVGID_1_"  style="overflow:visible;"/>
	</clipPath>
	<path class="st0" d="M466.1,0l-64.6,106.5c0,0,77.5,86.3,88.8,221.9c11.3,135.6-48.4,228.4-48.4,228.4L339.7,455.1
		c30.3-40,52.1-66.7,52.1-66.7s-26.6,21.9-63,55.8L127.3,243.7c0,0-116.9,137.9-126.6,321c-9.7,183.1,83.4,321,83.4,321l45-98.2
		c0,0,54.1-101.8,106.9-184.8c17.7-27.9,36.8-55.8,55.3-81.8l122.3,123.1c0,0,137.5-134.7,135.9-375.8C530.7,77.9,466.1,0,466.1,0
		 M230.2,544.5c-74.5,84.5-130.8,183-130.8,183s-38-100.3-44.5-162.2C42.5,446.7,99.1,327.4,99.1,327.4l172,173
		C257.4,514.5,243.6,529.3,230.2,544.5"/>
</g>
</svg>
