<?xml version="1.0" encoding="utf-8"?>
<!-- Generator: Adobe Illustrator 21.1.0, SVG Export Plug-In . SVG Version: 6.00 Build 0)  -->
<svg version="1.1" id="Слой_1" xmlns="http://www.w3.org/2000/svg" xmlns:xlink="http://www.w3.org/1999/xlink" x="0px" y="0px"
	 viewBox="0 0 33.1 33.1" style="enable-background:new 0 0 33.1 33.1;" xml:space="preserve">
<style type="text/css">
	.st0{clip-path:url(#SVGID_2_);fill:#FFFFFF;}
</style>
<g>
	<defs>
		<rect id="SVGID_1_" y="0" width="33.1" height="33.1"/>
	</defs>
	<clipPath id="SVGID_2_">
		<use xlink:href="#SVGID_1_"  style="overflow:visible;"/>
	</clipPath>
	<path class="st0" d="M16.5,13.3c-1.8,0-3.3,1.5-3.3,3.3c0,1.8,1.5,3.3,3.3,3.3c1.8,0,3.3-1.5,3.3-3.3
		C19.8,14.7,18.3,13.3,16.5,13.3"/>
	<path class="st0" d="M20.5,8.1h-7.8c-2.5,0-4.6,2-4.6,4.6v7.8c0,2.5,2,4.6,4.6,4.6h7.8c2.5,0,4.6-2,4.6-4.6v-7.8
		C25,10.1,23,8.1,20.5,8.1 M16.5,21.8c-2.9,0-5.2-2.3-5.2-5.2s2.3-5.2,5.2-5.2c2.9,0,5.2,2.3,5.2,5.2S19.4,21.8,16.5,21.8
		 M22.1,11.6c-0.4,0-0.7-0.3-0.7-0.7c0-0.4,0.3-0.7,0.7-0.7c0.4,0,0.7,0.3,0.7,0.7C22.8,11.3,22.5,11.6,22.1,11.6"/>
	<path class="st0" d="M16.5,0C7.4,0,0,7.4,0,16.5s7.4,16.5,16.5,16.5s16.5-7.4,16.5-16.5S25.7,0,16.5,0 M27,20.5
		c0,3.6-2.9,6.5-6.5,6.5h-7.8c-3.6,0-6.5-2.9-6.5-6.5v-7.8C6.1,9,9,6.1,12.6,6.1h7.8c3.6,0,6.5,2.9,6.5,6.5V20.5z"/>
</g>
</svg>
