<?xml version="1.0" encoding="utf-8"?>
<!-- Generator: Adobe Illustrator 21.1.0, SVG Export Plug-In . SVG Version: 6.00 Build 0)  -->
<svg version="1.1" id="Слой_1" xmlns="http://www.w3.org/2000/svg" xmlns:xlink="http://www.w3.org/1999/xlink" x="0px" y="0px"
	 viewBox="0 0 32.5 32.5" style="enable-background:new 0 0 32.5 32.5;" xml:space="preserve">
<style type="text/css">
	.st0{clip-path:url(#SVGID_2_);fill:#FFFFFF;}
</style>
<g>
	<defs>
		<rect id="SVGID_1_" y="0" width="32.5" height="32.5"/>
	</defs>
	<clipPath id="SVGID_2_">
		<use xlink:href="#SVGID_1_"  style="overflow:visible;"/>
	</clipPath>
	<path class="st0" d="M16.3,0C7.3,0,0,7.3,0,16.3c0,9,7.3,16.3,16.3,16.3c9,0,16.3-7.3,16.3-16.3C32.5,7.3,25.2,0,16.3,0 M23.5,12.5
		c0,0.2,0,0.3,0,0.5c0,4.9-3.8,10.6-10.6,10.6c-2.1,0-4.1-0.6-5.7-1.7C7.4,22,7.7,22,8,22c1.8,0,3.4-0.6,4.6-1.6
		c-1.6,0-3-1.1-3.5-2.6c0.2,0,0.5,0.1,0.7,0.1c0.3,0,0.7,0,1-0.1c-1.7-0.3-3-1.9-3-3.7c0,0,0,0,0,0c0.5,0.3,1.1,0.5,1.7,0.5
		c-1-0.7-1.7-1.8-1.7-3.1c0-0.7,0.2-1.3,0.5-1.9c1.8,2.3,4.6,3.8,7.7,3.9c-0.1-0.3-0.1-0.6-0.1-0.9c0-2.1,1.7-3.7,3.7-3.7
		c1.1,0,2,0.5,2.7,1.2c0.9-0.2,1.7-0.5,2.4-0.9c-0.3,0.9-0.9,1.6-1.6,2.1c0.8-0.1,1.5-0.3,2.1-0.6C24.9,11.4,24.2,12,23.5,12.5"/>
</g>
</svg>
