<?xml version="1.0" encoding="utf-8"?>
<!-- Generator: Adobe Illustrator 21.1.0, SVG Export Plug-In . SVG Version: 6.00 Build 0)  -->
<svg version="1.1" id="Слой_1" xmlns="http://www.w3.org/2000/svg" xmlns:xlink="http://www.w3.org/1999/xlink" x="0px" y="0px"
	 viewBox="0 0 32.5 32.5" style="enable-background:new 0 0 32.5 32.5;" xml:space="preserve">
<style type="text/css">
	.st0{clip-path:url(#SVGID_2_);fill:#FFFFFF;}
</style>
<g>
	<defs>
		<rect id="SVGID_1_" y="0" width="32.5" height="32.5"/>
	</defs>
	<clipPath id="SVGID_2_">
		<use xlink:href="#SVGID_1_"  style="overflow:visible;"/>
	</clipPath>
	<path class="st0" d="M13.3,19.8c2.4-1.3,4.9-2.5,7.3-3.8c-2.4-1.3-4.9-2.5-7.3-3.8V19.8z"/>
	<path class="st0" d="M16.3,0C7.3,0,0,7.3,0,16.3c0,9,7.3,16.3,16.3,16.3c9,0,16.3-7.3,16.3-16.3C32.5,7.3,25.2,0,16.3,0 M27.3,21.7
		c-0.3,1.2-1.3,2.1-2.5,2.3c-2.8,0.3-5.7,0.3-8.6,0.3c-2.9,0-5.8,0-8.6-0.3c-1.2-0.1-2.2-1-2.5-2.3c-0.4-1.7-0.4-3.6-0.4-5.4
		s0-3.7,0.4-5.4c0.3-1.2,1.3-2.1,2.5-2.3c2.8-0.3,5.7-0.3,8.6-0.3c2.9,0,5.8,0,8.6,0.3c1.2,0.1,2.2,1,2.5,2.3
		c0.4,1.7,0.4,3.6,0.4,5.4S27.7,19.9,27.3,21.7"/>
</g>
</svg>
