<?xml version="1.0" encoding="utf-8"?>
<!-- Generator: Adobe Illustrator 21.1.0, SVG Export Plug-In . SVG Version: 6.00 Build 0)  -->
<svg version="1.1" id="Layer_1" xmlns="http://www.w3.org/2000/svg" xmlns:xlink="http://www.w3.org/1999/xlink" x="0px" y="0px"
	 viewBox="0 0 512 512" style="enable-background:new 0 0 512 512;" xml:space="preserve">
<style type="text/css">
	.st0{fill:#6BA7BC;}
</style>
<g>
	<g>
		<path class="st0" d="M409.4,503.3c0-0.5-4.5-48.3-18.3-110.1c-22.8-101.7-53.5-164.3-75.7-199.4v-31l25.4-110.3
			c0.3-1.1,0.3-2.3,0-3.4l0,0l-8.6-42.8c-0.7-3.7-4-6.4-7.9-6.4h-25.7c-4.4,0-8,3.6-8,8v41c-11.8,5.1-24.1,13.7-34.4,28.3
			c-0.1,0.1-0.3,0.1-0.3,0.1c0,0-0.3,0-0.3-0.1C245.4,62.7,233.1,54,221.3,49V8c0-4.4-3.6-8-8-8h-25.7c-3.8,0-7.1,2.7-7.9,6.4
			l-8.6,42.8l0,0c-0.2,1.1-0.2,2.3,0,3.4l25.4,110.3l0,31c-22.2,35.1-52.9,97.7-75.7,199.4c-13.8,61.8-18.3,109.6-18.3,110.1
			c-0.2,2.2,0.5,4.5,2.1,6.1c1.5,1.7,3.7,2.6,5.9,2.6h290.7c2.3,0,4.4-0.9,5.9-2.6C408.8,507.7,409.6,505.5,409.4,503.3z M306.8,16
			h11.1l5.2,26.2c-4.5,0.1-10.1,0.5-16.3,1.8L306.8,16L306.8,16z M194.2,16h11.1v28c-6.2-1.3-11.8-1.7-16.3-1.8L194.2,16z M189,58.3
			c12.7,0.3,36.7,4.3,53.5,28.3c3,4.3,8.1,6.9,13.5,6.9c5.4,0,10.4-2.6,13.5-6.9c17-24.1,40.9-28.1,53.6-28.3l-22.1,95.7h-89.9
			L189,58.3z M299.3,170v18.2h-86.6V170H299.3z M119.6,496c4.4-37.8,25.7-189.6,89.5-291.8H221l-15.7,101.9
			c-0.7,4.4,2.3,8.5,6.7,9.1c0.4,0.1,0.8,0.1,1.2,0.1c3.9,0,7.3-2.8,7.9-6.8l16.1-104.4H248v163c0,4.4,3.6,8,8,8c4.4,0,8-3.6,8-8
			v-163h10.8l16.1,104.4c0.6,4,4,6.8,7.9,6.8c0.4,0,0.8,0,1.2-0.1c4.4-0.7,7.4-4.8,6.7-9.1L291,204.2h11.9
			c63.8,102.1,85.1,254,89.5,291.8L119.6,496L119.6,496z"/>
	</g>
</g>
</svg>
